# xmcd
#
# Track frame offsets: 
#        150
#        11603
#        23056
#        36960
#        49488
#        63243
#        74659
#        88085
#        100104
#        112969
#        125474
#        136635
#        148064
#        160851
#        172229
#        185055
#        196114
#        206568
#        217220
#        229067
#        241168
#
# Disc length: 3366 seconds
#
# Revision: 0
# Processed by: cddbd v1.5.2PL0 Copyright (c) Steve Scherf et al.
# Submitted via: ExactAudioCopyFreeDBPlugin 1.0
#
DISCID=350d2415
DTITLE=Jim Reeves - Welcome To My World - CD 01
DYEAR=2001
DGENRE=Country
TTITLE0=My Heart's Like A Welcome Mat
TTITLE1=Teardrops Of Regret
TTITLE2=Chicken Hearted
TTITLE3=I've Never Been So Blue
TTITLE4=What Were You Doing Last Night
TTITLE5=Wagon Load Of Love
TTITLE6=I Could Cry
TTITLE7=Mexican Joe
TTITLE8=Butterfly Love
TTITLE9=Let Me Love You Just A Little
TTITLE10=El Rancho Del Rio
TTITLE11=It's Hard To Love Just One
TTITLE12=Bimbo
TTITLE13=Gypsy Heart
TTITLE14=Echo Bonita
TTITLE15=Then I'll Stop Loving You
TTITLE16=Beatin' On A Ding Dong
TTITLE17=My Rambling Heart
TTITLE18=Padre Of Old San Antone
TTITLE19=Mother Went A-Walkin'
TTITLE20=I Love You (& Ginny Wright)
EXTD=
EXTT0=
EXTT1=
EXTT2=
EXTT3=
EXTT4=
EXTT5=
EXTT6=
EXTT7=
EXTT8=
EXTT9=
EXTT10=
EXTT11=
EXTT12=
EXTT13=
EXTT14=
EXTT15=
EXTT16=
EXTT17=
EXTT18=
EXTT19=
EXTT20=
PLAYORDER=
